<svg width="131" height="67" viewBox="0 0 131 67" fill="none" xmlns="http://www.w3.org/2000/svg">
<g id="logo text 2">
<g id="Group">
<g id="Group_2">
<path id="Vector" d="M31.3442 14.6439C21.3947 14.6439 13.3325 22.7231 13.3325 32.6936C13.3325 42.6642 21.3947 50.7434 31.3442 50.7434C41.2938 50.7434 49.356 42.6642 49.356 32.6936C49.356 22.7231 41.2898 14.6439 31.3442 14.6439ZM22.1543 30.3197C22.1426 30.6258 22.2327 30.7278 22.5498 30.7278C24.4763 30.7082 26.4067 30.716 28.341 30.716C29.3786 30.716 30.0991 31.4262 30.103 32.4582C30.1108 32.9134 30.15 33.3725 29.8955 33.7884C29.5431 34.3731 29.0301 34.6438 28.3606 34.6516C26.4341 34.6516 24.4998 34.6595 22.5694 34.6477C22.2444 34.6477 22.1387 34.738 22.1504 35.0676V35.2638C22.1543 35.6248 22.1622 35.9779 22.1622 36.335C22.1622 36.4135 22.1622 36.4959 22.1622 36.5743C22.1622 36.9432 22.1543 37.312 22.1504 37.6769C22.1504 37.728 22.1543 37.7672 22.1622 37.8104V37.8143C22.1622 37.8261 22.17 37.8378 22.1739 37.8496C22.1818 37.8928 22.1974 37.932 22.2209 37.9673C22.2327 37.9909 22.2483 38.0105 22.2679 38.0301C22.2836 38.0419 22.2992 38.0576 22.3149 38.0693C22.3462 38.0968 22.3814 38.1243 22.4206 38.1478C22.4284 38.1517 22.4324 38.1517 22.4363 38.1517C24.6721 39.4388 26.8961 40.7219 29.1241 42.0167C29.7976 42.4013 30.4671 42.7897 31.1406 43.1821C31.3012 43.2763 31.3951 43.2645 31.5478 43.1743C34.4415 41.4949 37.339 39.8233 40.2405 38.1517C40.4284 38.0458 40.5224 37.9281 40.5224 37.6966C40.5146 37.2414 40.5106 36.7902 40.5106 36.3389C40.5106 35.8994 40.5146 35.4639 40.5224 35.0283C40.5302 34.734 40.4088 34.6634 40.1387 34.6673C38.1613 34.6752 36.1917 34.6438 34.2183 34.6791C33.2981 34.6987 32.4719 33.9571 32.5659 33.0193C32.609 32.5838 32.5659 32.1208 32.6795 31.7009C32.84 31.0927 33.4156 30.7317 34.0577 30.7317H43.0636C43.3964 30.7317 43.7018 30.8455 43.9407 31.0378C44.25 31.2889 44.4458 31.6695 44.4458 32.109C44.4458 32.6112 44.4497 33.1135 44.4497 33.6157C44.4536 35.613 44.4536 37.6063 44.4536 39.6036C44.4536 40.094 44.2069 40.4315 43.7919 40.6748C43.4199 40.8906 43.0479 41.1025 42.676 41.3183C40.495 42.5779 38.314 43.8374 36.1369 45.1009C34.8095 45.87 33.4822 46.6391 32.1548 47.4042C31.6105 47.722 31.0741 47.722 30.5259 47.4081C30.0599 47.1374 29.5901 46.8627 29.1241 46.592C27.9729 45.9288 26.8296 45.2696 25.6784 44.6065C25.2907 44.3828 24.8992 44.1592 24.5115 43.9316C24.4215 43.8767 24.3353 43.8256 24.2453 43.7786C23.9242 43.5902 23.6031 43.4019 23.282 43.2174C23.2625 43.2057 23.239 43.1939 23.2194 43.1821C22.867 42.9742 22.5107 42.7741 22.1583 42.5661C21.8685 42.4013 21.5788 42.2365 21.2968 42.0638C20.5059 41.6008 19.7149 41.1417 18.9279 40.6826C18.4698 40.4119 18.227 39.992 18.227 39.4466V32.6976C18.227 30.5041 18.2388 28.3146 18.2192 26.1212C18.2113 25.4306 18.4894 24.9519 19.0845 24.6066C21.567 23.1822 24.0495 21.7461 26.5281 20.3099C27.8476 19.5487 29.175 18.7914 30.4906 18.0184C31.0584 17.6809 31.5988 17.6809 32.1704 18.0105C35.9842 20.2275 39.8058 22.4327 43.6274 24.634C44.1991 24.9636 44.4654 25.4384 44.4536 26.1015C44.4341 26.9452 44.4419 27.7967 44.4536 28.6442C44.4536 28.8679 44.3832 28.9463 44.16 28.9463C43.4277 28.9346 42.7034 28.9542 41.979 28.9424C41.1371 28.9307 40.6516 28.4755 40.5106 27.6436C40.4871 27.4906 40.3501 27.3062 40.217 27.2316C37.6444 25.7288 35.0758 24.2416 32.4993 22.7506C32.2292 22.5975 31.9433 22.4484 31.6849 22.2758C31.45 22.1149 31.2503 22.1227 30.9997 22.2719C29.4256 23.194 27.8398 24.1082 26.2579 25.0264C25.001 25.7484 23.7519 26.4822 22.4911 27.1885C22.2444 27.3376 22.1504 27.5063 22.1543 27.7927C22.17 28.6246 22.17 29.4761 22.1543 30.3197Z" fill="white"/>
<g id="Group_3">
<path id="Vector_2" d="M10.8931 15.7072C13.3325 15.7072 15.2629 17.6613 15.2629 20.1216C15.259 22.523 13.2973 24.4731 10.8892 24.4731C8.46938 24.4731 6.5155 22.5073 6.5155 20.0745C6.51942 17.6613 8.47721 15.7072 10.8931 15.7072Z" fill="white"/>
<path id="Vector_3" d="M56.173 45.3167C56.1691 47.7573 54.2034 49.6879 51.7327 49.684C49.3285 49.68 47.4216 47.6946 47.4255 45.2068C47.4295 42.8525 49.4225 40.9102 51.8228 40.9181C54.2308 40.9259 56.1769 42.8918 56.173 45.3167Z" fill="white"/>
<path id="Vector_4" d="M52.4532 16.8647C54.8847 16.8647 56.8347 18.8149 56.8347 21.2477C56.8347 23.6805 54.8808 25.6307 52.4492 25.6267C49.9981 25.6228 48.0873 23.6648 48.0912 21.1653C48.0951 18.811 50.0686 16.8647 52.4532 16.8647Z" fill="white"/>
<path id="Vector_5" d="M10.2157 48.5225C7.79982 48.5225 5.84985 46.5645 5.84985 44.1435C5.84985 41.7107 7.80373 39.7566 10.2314 39.7605C12.6826 39.7644 14.5973 41.7185 14.5934 44.2219C14.5934 46.5841 12.616 48.5264 10.2157 48.5225Z" fill="white"/>
<path id="Vector_6" d="M30.6551 61.0946C28.2666 61.0946 26.3284 59.1523 26.3362 56.7508C26.344 54.2749 28.2783 52.3757 30.6825 52.3875C33.1807 52.4032 35.0171 54.3416 35.0249 56.7548C35.0327 59.1523 33.0593 61.1299 30.6551 61.0946Z" fill="white"/>
<path id="Vector_7" d="M32.0295 4.2927C34.422 4.2927 36.3563 6.23502 36.3523 8.6325C36.3445 11.132 34.375 13.0076 32.0139 12.9998C29.5666 12.9919 27.6832 11.0888 27.6676 8.64819C27.6441 6.24679 29.6214 4.26523 32.0295 4.2927Z" fill="white"/>
<path id="Vector_8" d="M9.20164 38.3754C8.53599 38.6226 7.89775 38.858 7.23602 39.1052C6.62127 36.8058 6.33935 34.428 6.40591 32.0069C6.47248 29.582 6.89144 27.2237 7.62758 24.9557C8.26973 25.2383 8.90014 25.5129 9.55013 25.7994C8.92755 27.8123 8.55557 29.9155 8.49292 32.0736C8.42636 34.2161 8.6887 36.331 9.20164 38.3754Z" fill="white"/>
<path id="Vector_9" d="M49.8846 15.9858C49.313 16.4096 48.7648 16.8138 48.1892 17.2375C45.2564 14.0592 41.6776 11.8305 37.5035 10.6337C37.6249 9.947 37.7385 9.27602 37.8638 8.5658C42.5781 9.86852 46.5916 12.368 49.8846 15.9858Z" fill="white"/>
<path id="Vector_10" d="M12.7765 49.3779C13.0976 49.17 13.3991 48.9934 13.6771 48.7894C13.9473 48.5892 14.1939 48.3577 14.468 48.1262C17.4282 51.3359 21.0071 53.5608 25.2163 54.7693C25.1341 55.1146 25.0362 55.4482 24.9775 55.7856C24.9187 56.1191 24.9031 56.4605 24.8639 56.8411C20.1143 55.5227 16.1008 53.0271 12.7765 49.3779Z" fill="white"/>
<path id="Vector_11" d="M55.0532 40.4747C54.7243 40.3059 54.4267 40.1294 54.1134 39.992C53.8002 39.8547 53.4674 39.7527 53.1306 39.6271C53.7649 37.5788 54.1369 35.4796 54.1996 33.3332C54.2622 31.1829 54.0038 29.0719 53.4869 27.0197C54.1526 26.7725 54.7947 26.5292 55.4565 26.282C56.6977 31.026 56.5607 35.7621 55.0532 40.4747Z" fill="white"/>
<path id="Vector_12" d="M26.1757 8.24011C26.254 8.93856 26.3284 9.61739 26.4067 10.3315C24.355 10.7906 22.358 11.5322 20.4707 12.5603C18.5873 13.5883 16.8801 14.8597 15.3726 16.3311C14.8323 15.876 14.3076 15.4365 13.7633 14.9774C17.2443 11.544 21.3948 9.27601 26.1757 8.24011Z" fill="white"/>
<path id="Vector_13" d="M47.316 49.0601C47.8681 49.5231 48.3928 49.9586 48.9292 50.4059C45.4443 53.8433 41.2899 56.1112 36.5168 57.1471C36.4385 56.4448 36.3602 55.762 36.2819 55.0597C40.5107 54.1022 44.207 52.0775 47.316 49.0601Z" fill="white"/>
</g>
</g>
<g id="Group_4">
<path id="Vector_14" d="M59.9634 17.8183H66.941V20.4355H62.6182V22.9939H66.941V25.5719H62.6182V31.9128H59.9595V17.8183H59.9634Z" fill="white"/>
<path id="Vector_15" d="M82.3019 20.1177L80.4185 21.9854C79.2242 20.7219 77.8342 20.0902 76.2484 20.0902C74.8622 20.0902 73.7032 20.5493 72.7713 21.4714C71.8355 22.3896 71.3695 23.5079 71.3695 24.8224C71.3695 26.184 71.8551 27.3376 72.8222 28.2793C73.7933 29.225 74.9875 29.6958 76.4128 29.6958C77.3369 29.6958 78.1161 29.4996 78.7543 29.1112C79.3887 28.7227 79.9016 28.1106 80.2892 27.2826H76.217V24.7635H83.2925L83.3121 25.356C83.3121 26.5881 82.9949 27.7574 82.3567 28.864C81.7184 29.9705 80.8922 30.8102 79.882 31.3949C78.8718 31.9795 77.6815 32.266 76.3149 32.266C74.8544 32.266 73.5544 31.9481 72.4111 31.3125C71.2677 30.6768 70.3632 29.7704 69.6976 28.5971C69.0319 27.4239 68.6991 26.1526 68.6991 24.7949C68.6991 22.9311 69.3138 21.3066 70.5433 19.9293C72.0039 18.2891 73.9029 17.4691 76.2405 17.4691C77.4622 17.4691 78.6095 17.6966 79.6706 18.1479C80.5633 18.5285 81.4404 19.1877 82.3019 20.1177Z" fill="white"/>
<g id="Group_5">
<path id="Vector_16" d="M65.7741 34.2985L72.3327 48.3891H70.8135L68.6012 43.7511H62.5437L60.3549 48.3891H58.7887L65.4335 34.2985H65.7741ZM65.5979 37.2924L63.1898 42.3935H67.9982L65.5979 37.2924Z" fill="white"/>
<path id="Vector_17" d="M78.6525 33.9454V35.2559C78.163 35.044 77.7401 34.9381 77.3917 34.9381C77.1293 34.9381 76.914 34.9891 76.7417 35.095C76.5694 35.201 76.4597 35.3226 76.4167 35.46C76.3736 35.5973 76.3501 35.9622 76.3501 36.5586V37.9673H78.5193V39.1249H76.3462L76.3384 48.3891H74.9992V39.1288H73.6327V37.9712H74.9992V36.3428C74.9992 35.5973 75.0658 35.0637 75.2028 34.7419C75.3399 34.4241 75.5709 34.1651 75.8998 33.9689C76.2287 33.7727 76.6242 33.6785 77.0902 33.6785C77.5287 33.6785 78.0456 33.7649 78.6525 33.9454Z" fill="white"/>
<path id="Vector_18" d="M87.306 36.284H85.9473C85.7633 35.4011 85.2307 34.9616 84.3536 34.9616C83.9582 34.9616 83.6293 35.048 83.3669 35.2245C83.1046 35.4011 82.9127 35.6326 82.7992 35.923C82.6856 36.2133 82.6269 36.7431 82.6269 37.5082V37.9673H84.7765V39.1445H82.6269V48.3891H81.2682V39.1484H79.9016V37.9712H81.2682V37.5121C81.2682 36.5116 81.3817 35.766 81.6088 35.2834C81.8359 34.8008 82.1844 34.4123 82.6582 34.118C83.132 33.8237 83.7036 33.6785 84.3732 33.6785C85.2151 33.6785 85.9003 33.9218 86.4289 34.4084C86.9653 34.891 87.2551 35.5149 87.306 36.284ZM85.9473 37.9673H87.306V48.3891H85.9473V37.9673Z" fill="white"/>
<path id="Vector_19" d="M90.0038 33.9454H91.3429V48.393H90.0038V33.9454Z" fill="white"/>
<path id="Vector_20" d="M94.6634 33.6785C94.9688 33.6785 95.2272 33.7884 95.4426 34.0042C95.6579 34.22 95.7676 34.4829 95.7676 34.789C95.7676 35.0911 95.6579 35.3462 95.4426 35.5659C95.2272 35.7817 94.9649 35.8916 94.6634 35.8916C94.3658 35.8916 94.1074 35.7817 93.892 35.5659C93.6766 35.3501 93.567 35.0911 93.567 34.789C93.567 34.4829 93.6766 34.22 93.892 34.0042C94.1113 33.7845 94.3658 33.6785 94.6634 33.6785ZM94.0016 37.9673H95.3408V48.3891H94.0016V37.9673Z" fill="white"/>
<path id="Vector_21" d="M108.564 37.9673V48.3891H107.244V46.5959C106.684 47.2787 106.054 47.7927 105.357 48.138C104.66 48.4833 103.896 48.656 103.066 48.656C101.594 48.656 100.337 48.1223 99.2955 47.0511C98.2539 45.9799 97.7332 44.6811 97.7332 43.1468C97.7332 41.6479 98.2578 40.3609 99.3111 39.2975C100.364 38.2302 101.629 37.6966 103.105 37.6966C103.959 37.6966 104.73 37.8771 105.423 38.242C106.116 38.6069 106.723 39.1523 107.244 39.8783V37.9634H108.564V37.9673ZM103.215 38.9954C102.471 38.9954 101.782 39.1798 101.151 39.5447C100.521 39.9097 100.02 40.4276 99.6479 41.0907C99.2759 41.7539 99.0879 42.4562 99.0879 43.1979C99.0879 43.9316 99.2759 44.634 99.6518 45.301C100.028 45.972 100.533 46.4939 101.167 46.8667C101.801 47.2394 102.479 47.4278 103.207 47.4278C103.939 47.4278 104.632 47.2434 105.29 46.8745C105.944 46.5057 106.449 46.0034 106.806 45.3717C107.162 44.7399 107.334 44.0297 107.334 43.2371C107.334 42.0325 106.939 41.024 106.144 40.2118C105.349 39.3996 104.37 38.9954 103.215 38.9954Z" fill="white"/>
<path id="Vector_22" d="M112.816 34.0984H114.155V37.9673H116.277V39.1249H114.155V48.3891H112.816V39.1288H110.991V37.9712H112.816V34.0984Z" fill="white"/>
<path id="Vector_23" d="M127.12 44.9322L128.247 45.5247C127.879 46.2545 127.449 46.8392 126.967 47.2865C126.481 47.7338 125.937 48.0752 125.33 48.3067C124.723 48.5382 124.038 48.656 123.275 48.656C121.579 48.656 120.252 48.0988 119.292 46.9844C118.337 45.87 117.855 44.6104 117.855 43.2057C117.855 41.8834 118.259 40.7062 119.069 39.6703C120.095 38.3558 121.469 37.6966 123.192 37.6966C124.966 37.6966 126.384 38.3715 127.441 39.7174C128.193 40.6709 128.576 41.8559 128.588 43.2803H119.23C119.253 44.4888 119.641 45.4815 120.389 46.2585C121.137 47.0315 122.057 47.4199 123.153 47.4199C123.682 47.4199 124.199 47.3258 124.7 47.1413C125.201 46.9569 125.628 46.7136 125.976 46.4076C126.325 46.1015 126.712 45.615 127.12 44.9322ZM127.12 42.1266C126.94 41.4125 126.681 40.8396 126.34 40.4119C126 39.9842 125.549 39.6389 124.986 39.376C124.426 39.1131 123.834 38.9836 123.216 38.9836C122.194 38.9836 121.317 39.3132 120.585 39.9685C120.048 40.4472 119.645 41.1653 119.371 42.1227H127.12V42.1266Z" fill="white"/>
</g>
</g>
</g>
</g>
</svg>
